<svg width="25" height="25" viewBox="0 0 25 25" fill="none" xmlns="http://www.w3.org/2000/svg">
<path d="M3.25972 13H17.2826L18.9969 4.42859H1.854C1.72864 4.42905 1.6049 4.457 1.49151 4.51048C1.37812 4.56396 1.27785 4.64165 1.19775 4.7381C1.11766 4.83454 1.05969 4.94738 1.02794 5.06865C0.996193 5.18993 0.991435 5.3167 1.014 5.44002L2.41972 12.2972C2.45251 12.4954 2.55529 12.6754 2.70941 12.8043C2.86353 12.9333 3.05878 13.0027 3.25972 13V13Z" stroke="black" stroke-width="1.71429" stroke-linecap="round" stroke-linejoin="round"/>
<path d="M18.9969 4.42857L19.7169 1.68571C19.7564 1.49211 19.8616 1.3181 20.0147 1.19315C20.1677 1.06819 20.3593 0.99996 20.5569 1H23.2826" stroke="black" stroke-width="1.71429" stroke-linecap="round" stroke-linejoin="round"/>
<path d="M17.2826 13L16.5626 16.6C16.5231 16.7936 16.4179 16.9676 16.2648 17.0926C16.1117 17.2175 15.9202 17.2858 15.7226 17.2857H5.28259" stroke="black" stroke-width="1.71429" stroke-linecap="round" stroke-linejoin="round"/>
<path d="M6.13974 23.2857C6.61312 23.2857 6.99688 22.9019 6.99688 22.4286C6.99688 21.9552 6.61312 21.5714 6.13974 21.5714C5.66635 21.5714 5.28259 21.9552 5.28259 22.4286C5.28259 22.9019 5.66635 23.2857 6.13974 23.2857Z" stroke="black" stroke-width="1.71429" stroke-linecap="round" stroke-linejoin="round"/>
<path d="M14.7111 23.2857C15.1845 23.2857 15.5683 22.9019 15.5683 22.4286C15.5683 21.9552 15.1845 21.5714 14.7111 21.5714C14.2378 21.5714 13.854 21.9552 13.854 22.4286C13.854 22.9019 14.2378 23.2857 14.7111 23.2857Z" stroke="black" stroke-width="1.71429" stroke-linecap="round" stroke-linejoin="round"/>
</svg>
