<svg width="694" height="689" viewBox="0 0 694 689" fill="none" xmlns="http://www.w3.org/2000/svg">
<path d="M211.918 140.612C240.981 120.811 295.057 149.536 332.685 204.765C370.313 259.995 377.255 320.832 348.191 340.633C319.128 360.433 265.052 331.709 227.424 276.479C189.797 221.25 182.854 160.413 211.918 140.612Z" fill="white"/>
<path d="M348.459 363.458C348.353 327.731 292.192 298.975 223.02 299.229C153.849 299.483 97.8602 328.651 97.9663 364.378C98.0724 400.104 154.233 428.861 223.405 428.607C292.576 428.353 348.565 399.184 348.459 363.458Z" fill="white"/>
<path d="M606.966 341.32C606.86 305.593 550.699 276.837 481.528 277.091C412.356 277.345 356.367 306.513 356.474 342.24C356.58 377.966 412.74 406.723 481.912 406.469C551.084 406.215 607.072 377.046 606.966 341.32Z" fill="white"/>
<path d="M470.337 260.158C495.545 195.743 489.002 132.989 455.723 119.993C422.444 106.996 375.03 148.679 349.822 213.094C324.614 277.508 331.157 340.262 364.437 353.259C397.716 366.255 445.129 324.572 470.337 260.158Z" fill="white"/>
<path d="M350.785 483.172C389.007 425.51 395.846 362.778 366.061 343.058C336.276 323.337 281.146 354.095 242.924 411.758C204.702 469.42 197.862 532.152 227.647 551.872C257.432 571.593 312.563 540.835 350.785 483.172Z" fill="white"/>
<path d="M484.757 541.082C480.566 547.664 475.158 552.662 468.53 555.668C435.959 570.406 386.473 531.277 357.991 468.267C329.518 405.271 332.828 342.254 365.4 327.516C397.971 312.778 447.457 351.907 475.939 414.917C498.633 465.081 501.14 515.289 484.757 541.082Z" fill="white"/>
<path d="M384.181 387.956C409.435 370.75 415.971 336.345 398.778 311.111C381.586 285.876 347.176 279.367 321.922 296.572C296.668 313.778 290.133 348.182 307.325 373.417C324.518 398.652 358.927 405.161 384.181 387.956Z" fill="#FBB03B"/>
</svg>
